<svg width="20" height="20" viewBox="0 0 20 20" fill="none" xmlns="http://www.w3.org/2000/svg">
<circle cx="10" cy="10" r="10" fill="#141414"/>
<path fill-rule="evenodd" clip-rule="evenodd" d="M9.30175 16.6024C6.19301 16.2774 3.7226 13.807 3.39765 10.6983H2C2.33402 14.576 5.424 17.666 9.30175 18V16.6024ZM3.39765 9.30176C3.7226 6.19302 6.19301 3.72261 9.30175 3.39765V2C5.42401 2.33402 2.33402 5.42401 2 9.30176H3.39765ZM10.6983 3.39765V2C14.576 2.33402 17.666 5.42401 18 9.30176H16.6024C16.2774 6.19301 13.807 3.7226 10.6983 3.39765ZM16.6024 10.6983H18C17.666 14.576 14.576 17.666 10.6983 18V16.6024C13.807 16.2774 16.2774 13.807 16.6024 10.6983ZM9.93872 7.72401C9.39936 7.72401 9.05613 8.07332 9.0071 8.69554L7.2174 8.4663C7.37676 7.00354 8.70064 6.17392 10.049 6.17392C11.7407 6.17392 12.7826 7.05812 12.7826 8.29164C12.7826 8.99609 12.3015 9.46942 11.8283 9.93505C11.3702 10.3858 10.9194 10.8293 10.9194 11.4682V11.7084H9.11742V11.4573C9.11742 10.6168 9.42388 10.1692 10.2329 9.23043C10.4413 9.00119 10.76 8.64096 10.76 8.33531C10.76 7.94233 10.4413 7.72401 9.93872 7.72401ZM10.9194 12.4288V13.8261H9.11742V12.4288H10.9194Z" fill="white"/>
</svg>
